HIERARCHY
ROOT root
{
	OFFSET 0.000000 0.000000 0.000000
	CHANNELS 6 Xposition Yposition Zposition Zrotation Yrotation Xrotation
	JOINT lhip
	{
		OFFSET 0.058581 -0.082280 -0.017664
		CHANNELS 3 Zrotation Yrotation Xrotation
		JOINT lknee
		{
			OFFSET 0.043451 -0.386469 0.008037
			CHANNELS 3 Zrotation Yrotation Xrotation
			JOINT lankle
			{
				OFFSET -0.014790 -0.426874 -0.037428
				CHANNELS 3 Zrotation Yrotation Xrotation
				JOINT ltoe
				{
					OFFSET 0.041054 -0.060286 0.122042
					CHANNELS 3 Zrotation Yrotation Xrotation
					End Site
					{
						OFFSET 0.000000 0.000000 0.000000
					}
				}
			}
		}
	}
	JOINT rhip
	{
		OFFSET -0.060310 -0.090513 -0.013543
		CHANNELS 3 Zrotation Yrotation Xrotation
		JOINT rknee
		{
			OFFSET -0.043257 -0.383688 -0.004843
			CHANNELS 3 Zrotation Yrotation Xrotation
			JOINT rankle
			{
				OFFSET 0.019056 -0.420046 -0.034562
				CHANNELS 3 Zrotation Yrotation Xrotation
				JOINT rtoe
				{
					OFFSET -0.034840 -0.062106 0.130323
					CHANNELS 3 Zrotation Yrotation Xrotation
					End Site
					{
						OFFSET 0.000000 0.000000 0.000000
					}
				}
			}
		}
	}
	JOINT lowerback
	{
		OFFSET 0.004439 0.124404 -0.038385
		CHANNELS 3 Zrotation Yrotation Xrotation
		JOINT upperback
		{
			OFFSET 0.004488 0.137956 0.026820
			CHANNELS 3 Zrotation Yrotation Xrotation
			JOINT chest
			{
				OFFSET -0.002265 0.056032 0.002855
				CHANNELS 3 Zrotation Yrotation Xrotation
				JOINT lowerneck
				{
					OFFSET -0.013390 0.211636 -0.033468
					CHANNELS 3 Zrotation Yrotation Xrotation
					JOINT upperneck
					{
						OFFSET 0.010113 0.088937 0.050410
						CHANNELS 3 Zrotation Yrotation Xrotation
						End Site
						{
							OFFSET 0.000000 0.000000 0.000000
						}
					}
				}
				JOINT lclavicle
				{
					OFFSET 0.071702 0.114000 -0.018898
					CHANNELS 3 Zrotation Yrotation Xrotation
					JOINT lshoulder
					{
						OFFSET 0.122921 0.045205 -0.019046
						CHANNELS 3 Zrotation Yrotation Xrotation
						JOINT lelbow
						{
							OFFSET 0.255332 -0.015649 -0.022946
							CHANNELS 3 Zrotation Yrotation Xrotation
							JOINT lwrist
							{
								OFFSET 0.265709 0.012698 -0.007375
								CHANNELS 3 Zrotation Yrotation Xrotation
								End Site
								{
									OFFSET 0.000000 0.000000 0.000000
								}
							}
						}
					}
				}
				JOINT rclavicle
				{
					OFFSET -0.082954 0.112472 -0.023707
					CHANNELS 3 Zrotation Yrotation Xrotation
					JOINT rshoulder
					{
						OFFSET -0.113228 0.046853 -0.008472
						CHANNELS 3 Zrotation Yrotation Xrotation
						JOINT relbow
						{
							OFFSET -0.260127 -0.014369 -0.031269
							CHANNELS 3 Zrotation Yrotation Xrotation
							JOINT rwrist
							{
								OFFSET -0.269108 0.006794 -0.006027
								CHANNELS 3 Zrotation Yrotation Xrotation
								End Site
								{
									OFFSET 0.000000 0.000000 0.000000
								}
							}
						}
					}
				}
			}
		}
	}
}
MOTION
Frames: 16
Frame Time: 0.033333
1.289508 0.734850 0.990895 -85.797432 -0.990795 86.266409 -0.870950 -3.779098 -2.087523 -1.122801 -9.938932 8.671576 3.142854 7.583282 -10.540873 0.000000 -0.000000 0.000000 1.132320 -5.267846 -0.033563 -4.149671 -1.837215 9.058877 2.834085 -9.559607 -12.488040 0.000000 -0.000000 0.000000 0.797212 5.029557 7.787117 -2.447188 0.095364 -2.010353 0.001038 1.537972 -0.559906 -1.182654 29.184138 -10.748466 -5.152571 26.599790 -3.128526 -29.571521 -7.501711 1.160146 -50.163756 -6.443556 13.185218 -5.220324 -18.856921 18.531088 3.119856 -9.130886 3.449071 25.841487 6.637867 8.219222 58.748127 3.893577 19.945539 -3.203718 26.603369 11.954885 -1.280878 5.038575 0.468506 
1.289208 0.734492 0.990330 -84.583331 -0.529246 85.871260 -0.605562 -4.437626 -1.995119 -1.014126 -10.548183 9.083243 2.693930 7.484670 -10.651614 0.000000 -0.000000 0.000000 1.660477 -4.215147 0.868815 -3.969734 -2.962694 8.496274 2.511042 -10.933015 -12.199420 0.000000 -0.000000 0.000000 1.346724 4.270489 8.522593 -2.333972 -0.279818 -2.421406 -0.045631 1.378872 -0.335166 -1.142547 29.111337 -10.647660 -5.460915 26.697856 -3.443434 -29.748775 -7.499194 1.253010 -50.323497 -6.837408 13.333540 -5.092905 -18.421602 18.818273 5.837796 -10.351821 3.223403 25.853592 6.721062 7.822711 58.630994 3.747003 20.367266 -2.887261 26.254346 11.961564 -5.964773 6.622398 -0.009513 
1.286811 0.734226 0.990235 -84.967539 -0.690333 85.694879 -0.842429 -4.103773 -1.212179 -0.805378 -10.564256 8.357443 2.514823 7.418944 -10.585085 0.000000 -0.000000 0.000000 1.511185 -3.809719 1.234659 -4.007871 -3.193276 8.500392 2.685557 -10.599619 -12.341107 0.000000 -0.000000 0.000000 1.127872 4.237848 8.327166 -2.348855 0.045897 -2.132721 -0.032880 1.477861 -0.376210 -1.123684 29.058728 -10.552426 -5.315233 26.578512 -3.578091 -29.541180 -7.630863 1.170436 -50.544866 -6.477846 13.548675 -4.803046 -18.860186 18.765559 4.095762 -9.985181 3.396306 25.615739 6.491253 7.652093 59.040933 3.690569 20.180194 -3.769701 27.469928 11.424212 -1.366492 4.262483 -1.108877 
1.286170 0.734283 0.990167 -84.998880 -0.682484 85.649014 -0.877619 -4.045662 -1.121878 -0.685205 -10.581978 8.353442 2.502938 7.466315 -10.655194 0.000000 -0.000000 0.000000 1.615017 -3.814115 1.381066 -4.105356 -3.239584 8.354874 2.711787 -10.519009 -12.196851 0.000000 -0.000000 0.000000 1.077933 4.258149 8.423718 -2.355800 0.058553 -2.082552 0.016016 1.550959 -0.416303 -1.240272 28.848672 -10.569158 -5.424092 26.449914 -3.720543 -29.300418 -7.629803 1.016872 -50.795110 -6.590665 13.572776 -4.853351 -18.898562 19.027110 3.924206 -9.777381 3.403651 25.432570 6.538757 7.366204 59.303852 3.579428 20.229604 -3.750101 27.347629 11.557996 -1.093622 4.138435 -1.260521 
1.285702 0.734409 0.990078 -84.984340 -0.693217 85.643872 -0.843201 -4.035782 -1.049350 -0.723556 -10.563074 8.247269 2.488757 7.364886 -10.491753 0.000000 -0.000000 0.000000 1.611969 -3.876032 1.448871 -4.079721 -3.212653 8.281491 2.636925 -10.565365 -12.286854 0.000000 -0.000000 0.000000 1.050063 4.297449 8.394133 -2.339571 0.043506 -2.151263 0.013831 1.552366 -0.411277 -1.165518 28.933422 -10.940991 -5.078463 26.257978 -2.880225 -29.304655 -7.792178 1.188278 -50.824062 -6.598380 13.567829 -4.722790 -18.777555 18.935725 3.909287 -9.967145 3.391890 25.488159 6.694495 7.593119 59.316665 3.579958 20.179434 -3.958824 27.345311 11.486944 -0.822446 4.137123 -1.305023 
1.285173 0.734553 0.990148 -84.930747 -0.684374 85.609299 -0.812352 -3.907100 -0.948874 -0.734768 -10.749988 8.220919 2.319110 7.274470 -10.723626 0.000000 -0.000000 0.000000 1.681784 -3.943303 1.620215 -4.156438 -3.176484 8.085048 2.681345 -10.541351 -12.177119 0.000000 -0.000000 0.000000 1.059512 4.292327 8.553380 -2.381527 0.004993 -2.178254 0.053961 1.484576 -0.461494 -1.381914 28.778581 -10.828663 -5.422389 26.260043 -3.537635 -29.301472 -7.765097 1.023434 -50.806036 -6.537441 13.596665 -4.837050 -18.621651 19.156060 4.656892 -10.021555 3.519743 25.487044 6.711795 7.342920 59.253057 3.444387 20.226622 -3.557753 27.350598 11.467974 -1.987608 4.319500 -1.435393 
1.284717 0.734690 0.990246 -84.917912 -0.711490 85.591758 -0.834276 -3.893139 -0.885937 -0.694663 -10.702370 8.185097 2.213141 7.267028 -10.772302 0.000000 -0.000000 0.000000 1.706280 -3.850895 1.762209 -4.202676 -3.242155 7.907364 2.752782 -10.559310 -12.185605 0.000000 -0.000000 0.000000 1.071395 4.203117 8.755880 -2.444810 -0.062913 -2.378484 0.043289 1.456879 -0.525624 -1.580115 28.752968 -11.134359 -5.392087 26.226935 -3.387493 -29.218469 -7.798201 1.155537 -50.868203 -6.413126 13.506676 -4.676307 -18.712111 19.020483 4.744619 -10.302699 3.493463 25.477138 6.921007 7.327498 59.326380 3.312720 20.303489 -3.502903 27.311903 11.452514 -1.996934 4.322351 -1.793474 
1.284380 0.735076 0.990022 -84.933230 -0.710816 85.713518 -0.776319 -3.917623 -0.985964 -0.724373 -10.637801 8.146599 2.251918 7.219608 -10.675389 0.000000 -0.000000 0.000000 1.761448 -3.840093 1.659731 -4.243447 -3.306567 7.888808 2.651220 -10.558798 -12.192415 0.000000 -0.000000 0.000000 1.007537 4.153437 8.716660 -2.431965 -0.036301 -2.516399 0.067522 1.464887 -0.586366 -1.653064 28.706860 -11.294595 -5.297246 26.119007 -3.238376 -29.286182 -7.779924 1.178512 -50.854569 -6.342056 13.443541 -4.576142 -18.828824 18.900749 4.087743 -9.968658 3.540002 25.590318 6.950699 7.374920 59.274626 3.191382 20.339980 -3.654002 27.398852 11.499075 -1.367757 4.242061 -1.849031 
1.284172 0.735264 0.989819 -85.000183 -0.744334 85.695156 -0.837714 -3.912146 -0.941491 -0.658253 -10.619641 8.143077 2.186468 7.270101 -10.652657 0.000000 -0.000000 0.000000 1.756677 -3.780964 1.747337 -4.267295 -3.264902 7.760867 2.724928 -10.587878 -12.064131 0.000000 -0.000000 0.000000 1.038467 4.118890 8.944317 -2.503514 -0.085956 -2.746438 0.038173 1.500701 -0.658038 -1.660647 28.704156 -11.584480 -5.083560 26.001631 -2.813715 -29.395969 -7.985926 1.362682 -50.736282 -6.241625 13.445316 -4.483027 -18.428809 18.949333 5.253032 -10.744353 4.079065 25.722466 7.220488 7.486735 59.235706 3.054961 20.360006 -3.490899 27.148989 11.673614 -2.351836 4.718546 -1.797705 
1.284101 0.735526 0.989776 -84.937772 -0.718018 85.822073 -0.802356 -3.989682 -1.135974 -0.677184 -10.686133 8.300484 2.375029 7.316564 -10.736478 0.000000 -0.000000 0.000000 1.832943 -3.808095 1.685755 -4.293867 -3.208207 7.628597 2.735723 -10.627734 -12.029120 0.000000 -0.000000 0.000000 1.011333 4.038632 8.856161 -2.462857 -0.122320 -2.916673 0.031176 1.572081 -0.571771 -1.652614 28.447075 -11.640907 -5.118246 25.799037 -2.846135 -29.442702 -7.816478 1.260531 -50.703753 -6.456781 13.432721 -4.719051 -18.241853 18.896504 5.520326 -10.676797 4.150612 25.852846 7.202046 7.435811 59.090531 3.009723 20.534497 -3.241788 26.813586 12.085291 -3.437671 5.415457 -0.808244 
1.283845 0.735554 0.989821 -84.928557 -0.730688 85.832506 -0.781103 -4.041328 -1.115406 -0.728837 -10.613913 8.301597 2.357255 7.325072 -10.770020 0.000000 -0.000000 0.000000 1.805265 -3.859962 1.730255 -4.269617 -3.219005 7.559526 2.670838 -10.614849 -11.978122 0.000000 -0.000000 0.000000 1.022265 4.048213 8.796357 -2.479586 -0.138672 -2.893178 0.047421 1.578479 -0.632304 -1.586732 28.282968 -11.500914 -5.068153 25.757979 -2.898259 -29.396428 -7.689261 1.192032 -50.762526 -6.475985 13.255699 -4.832327 -18.859335 18.447564 3.775596 -9.453417 3.435079 25.808309 7.152170 7.448926 59.159881 2.957479 20.530222 -3.510178 26.951042 12.085407 -1.872376 4.646320 -0.566294 
1.283737 0.735783 0.989869 -85.053117 -0.740059 85.730868 -0.802710 -3.928117 -0.983559 -0.651636 -10.598964 8.286791 2.147547 7.352936 -10.967766 0.000000 -0.000000 0.000000 1.840775 -3.796222 1.851283 -4.328784 -3.154075 7.534238 2.807736 -10.611786 -12.057361 0.000000 -0.000000 0.000000 0.981276 4.071633 8.994080 -2.472517 -0.152444 -2.982116 0.065874 1.575074 -0.669495 -1.557979 28.324140 -11.695062 -5.033235 25.695044 -2.740521 -29.457843 -7.838227 1.328477 -50.663500 -6.340441 13.462300 -4.833886 -18.361783 18.981319 5.673645 -11.023098 4.068583 25.853720 7.249018 7.394540 59.074156 2.921753 20.518402 -3.153204 26.752283 12.162131 -3.505541 5.475959 -0.717618 
1.283609 0.735700 0.989891 -85.093526 -0.751637 85.703510 -0.813127 -3.896697 -0.931371 -0.691513 -10.616455 8.298743 2.247041 7.269311 -10.902083 0.000000 -0.000000 0.000000 1.802428 -3.828855 1.885790 -4.295835 -3.149133 7.540705 2.781320 -10.600275 -12.012692 0.000000 -0.000000 0.000000 1.022807 4.059430 8.958264 -2.496657 -0.144754 -2.956399 0.045487 1.553959 -0.679126 -1.581374 28.294656 -11.689454 -5.033285 25.703763 -2.736743 -29.359588 -7.745353 1.216089 -50.775054 -6.333403 13.431297 -4.861719 -18.484028 19.105678 4.988359 -10.640329 3.918669 25.725311 7.164972 7.284839 59.169788 2.931893 20.531967 -3.189319 26.958174 12.138475 -2.779869 4.954898 -0.929329 
1.283456 0.735691 0.989844 -85.181357 -0.753165 85.709063 -0.826609 -3.803715 -0.935213 -0.654236 -10.596543 8.334494 2.252096 7.359090 -10.916378 0.000000 -0.000000 0.000000 1.793527 -3.798848 1.869040 -4.301886 -3.113317 7.567597 2.833359 -10.495475 -12.064485 0.000000 -0.000000 0.000000 1.068203 4.062954 8.978750 -2.494012 -0.142106 -3.128747 0.008973 1.494824 -0.609575 -1.632363 28.368738 -11.712379 -5.012794 25.693110 -2.701538 -29.212832 -7.693709 1.168350 -50.861177 -6.277538 13.584063 -4.972330 -18.454450 19.362793 4.992478 -10.563895 3.581175 25.486281 6.799435 7.099123 59.347866 3.137013 20.494023 -2.943869 27.269998 12.134329 -2.453212 4.425683 -1.878568 
1.283585 0.735779 0.989882 -85.254783 -0.754564 85.687768 -0.797867 -3.779359 -0.888221 -0.698204 -10.602498 8.275797 2.157011 7.294079 -10.818830 0.000000 -0.000000 0.000000 1.813493 -3.768758 1.859873 -4.343639 -3.093284 7.604081 2.826934 -10.486376 -12.007817 0.000000 -0.000000 0.000000 1.086658 4.005403 9.121797 -2.541039 -0.144711 -3.302165 -0.008513 1.506978 -0.631584 -1.792266 28.360574 -11.901511 -4.998914 25.694066 -2.783295 -29.218780 -7.731191 1.288005 -50.829138 -6.310910 13.531052 -4.946377 -18.230394 19.302248 5.279521 -10.832494 3.648380 25.543087 6.833569 7.168059 59.366702 3.093803 20.533061 -2.724310 26.721785 13.043823 -2.879912 5.093871 -0.560385 
1.283021 0.735570 0.990085 -85.238240 -0.743507 85.669591 -0.801269 -3.647045 -0.765744 -0.644858 -10.665598 8.177465 2.140588 7.182769 -11.004990 0.000000 -0.000000 0.000000 1.786344 -3.888065 1.980005 -4.321338 -3.075353 7.479155 2.936383 -10.390144 -12.035510 0.000000 -0.000000 0.000000 1.077598 4.051083 8.942523 -2.503848 -0.212163 -3.138801 -0.017444 1.434153 -0.639664 -1.939107 28.258354 -11.952648 -5.266117 25.732212 -3.298660 -29.229987 -7.772667 1.258371 -50.822346 -6.221011 13.546384 -4.854554 -18.170864 19.434604 5.463153 -10.833498 3.835999 25.375954 6.814935 7.086525 59.557470 3.163080 20.452667 -2.816613 27.108963 12.242291 -2.646376 4.457347 -1.886515 
